<svg width="101" height="100" viewBox="0 0 101 100" fill="none" xmlns="http://www.w3.org/2000/svg">
<path fill-rule="evenodd" clip-rule="evenodd" d="M49.9383 84.5583C41.4741 79.3473 33.608 73.2224 26.4813 66.2936C21.4589 61.2904 17.6412 55.2096 15.3176 48.512C11.1381 35.463 16.0227 20.5482 29.7222 16.1349C33.2738 14.9891 37.0487 14.7138 40.729 15.332C44.4093 15.9503 47.887 17.444 50.8693 19.6873C53.8504 17.4478 57.3251 15.9558 61.0019 15.3363C64.6787 14.7168 68.4505 14.988 72.0009 16.1271C85.6848 20.5482 90.6005 35.463 86.4249 48.512C84.1041 55.2166 80.2862 61.3044 75.2612 66.3131C68.1345 73.2419 60.2684 79.3668 51.8041 84.5778L50.8888 85.127L49.9383 84.5583Z" stroke="#464646" stroke-width="6.42787" stroke-linecap="round" stroke-linejoin="round"/>
<path d="M65.4336 30.8003C67.4711 31.4591 69.2678 32.7068 70.5968 34.3859C71.9258 36.065 72.7275 38.1001 72.9007 40.2345" stroke="#464646" stroke-width="6.42787" stroke-linecap="round" stroke-linejoin="round"/>
</svg>
