<svg width="24" height="24" viewBox="0 0 24 24" fill="none" xmlns="http://www.w3.org/2000/svg">
<path d="M8.95007 5C7.97333 5.19057 7.07568 5.66826 6.372 6.37194C5.66832 7.07561 5.19063 7.97326 5.00007 8.95M8.95007 1C6.92079 1.22544 5.02848 2.13417 3.58383 3.57701C2.13918 5.01984 1.22806 6.91101 1.00007 8.94M2.00007 16.92V19.92C1.99894 20.1985 2.05598 20.4742 2.16756 20.7293C2.27913 20.9845 2.44277 21.2136 2.64799 21.4019C2.85321 21.5901 3.09549 21.7335 3.35932 21.8227C3.62314 21.9119 3.90269 21.9451 4.18007 21.92C7.25723 21.5856 10.2131 20.5341 12.8101 18.85C15.2262 17.3147 17.2747 15.2662 18.8101 12.85C20.5001 10.2412 21.5518 7.27099 21.8801 4.18C21.9051 3.90347 21.8722 3.62476 21.7836 3.36162C21.6949 3.09849 21.5525 2.85669 21.3653 2.65162C21.1781 2.44655 20.9503 2.28271 20.6963 2.17052C20.4423 2.05833 20.1677 2.00026 19.8901 2H16.8901C16.4048 1.99522 15.9343 2.16708 15.5663 2.48353C15.1983 2.79999 14.958 3.23945 14.8901 3.72C14.7634 4.68007 14.5286 5.62273 14.1901 6.53C14.0555 6.88792 14.0264 7.27691 14.1062 7.65088C14.1859 8.02485 14.3712 8.36811 14.6401 8.64L15.9101 9.91C14.4865 12.4135 12.4136 14.4864 9.91007 15.91L8.64007 14.64C8.36818 14.3711 8.02491 14.1858 7.65095 14.1061C7.27698 14.0263 6.88799 14.0555 6.53007 14.19C5.62279 14.5286 4.68013 14.7634 3.72007 14.89C3.2343 14.9585 2.79067 15.2032 2.47353 15.5775C2.1564 15.9518 1.9879 16.4296 2.00007 16.92Z" stroke="#919191" stroke-width="2" stroke-linecap="round" stroke-linejoin="round"/>
</svg>
