<svg width="25" height="25" viewBox="0 0 25 25" fill="none" xmlns="http://www.w3.org/2000/svg">
<path d="M9.37516 22.9166C9.95046 22.9166 10.4168 22.4503 10.4168 21.875C10.4168 21.2997 9.95046 20.8333 9.37516 20.8333C8.79987 20.8333 8.3335 21.2997 8.3335 21.875C8.3335 22.4503 8.79987 22.9166 9.37516 22.9166Z" stroke="#464646" stroke-width="1.7" stroke-linecap="round" stroke-linejoin="round"/>
<path d="M20.8332 22.9166C21.4085 22.9166 21.8748 22.4503 21.8748 21.875C21.8748 21.2997 21.4085 20.8333 20.8332 20.8333C20.2579 20.8333 19.7915 21.2997 19.7915 21.875C19.7915 22.4503 20.2579 22.9166 20.8332 22.9166Z" stroke="#464646" stroke-width="1.7" stroke-linecap="round" stroke-linejoin="round"/>
<path d="M1.0415 1.04169H5.20817L7.99984 14.9896C8.09509 15.4692 8.35599 15.9 8.73686 16.2066C9.11774 16.5132 9.59431 16.6761 10.0832 16.6667H20.2082C20.697 16.6761 21.1736 16.5132 21.5545 16.2066C21.9354 15.9 22.1962 15.4692 22.2915 14.9896L23.9582 6.25002H6.24984" stroke="#464646" stroke-width="1.7" stroke-linecap="round" stroke-linejoin="round"/>
</svg>
