<svg width="101" height="100" viewBox="0 0 101 100" fill="none" xmlns="http://www.w3.org/2000/svg">
<path d="M40.3569 88.1132C42.4112 88.1132 44.0766 86.4478 44.0766 84.3935C44.0766 82.3392 42.4112 80.6738 40.3569 80.6738C38.3026 80.6738 36.6372 82.3392 36.6372 84.3935C36.6372 86.4478 38.3026 88.1132 40.3569 88.1132Z" stroke="#464646" stroke-width="6.42787" stroke-linecap="round" stroke-linejoin="round"/>
<path d="M81.2734 88.1132C83.3277 88.1132 84.9931 86.4478 84.9931 84.3935C84.9931 82.3392 83.3277 80.6738 81.2734 80.6738C79.2191 80.6738 77.5537 82.3392 77.5537 84.3935C77.5537 86.4478 79.2191 88.1132 81.2734 88.1132Z" stroke="#464646" stroke-width="6.42787" stroke-linecap="round" stroke-linejoin="round"/>
<path d="M10.5996 10H25.4783L35.4471 59.8065C35.7872 61.5191 36.7189 63.0574 38.0789 64.1522C39.439 65.2471 41.1408 65.8287 42.8865 65.7952H79.0418C80.7874 65.8287 82.4892 65.2471 83.8493 64.1522C85.2093 63.0574 86.141 61.5191 86.4811 59.8065L92.4326 28.5984H29.198" stroke="#464646" stroke-width="6.42787" stroke-linecap="round" stroke-linejoin="round"/>
</svg>
