<svg version="1.2" xmlns="http://www.w3.org/2000/svg" viewBox="0 0 1200 630" width="1200" height="630">
	<title>New Project</title>
	<style>
		.s0 { fill: #cc1f36 } 
		.s1 { fill: #2d4b83 } 
		.s2 { fill: #ffffff } 
		.s3 { fill: #9d9fa2 } 
		.s4 { fill: #414042 } 
	</style>
	<path id="Layer" class="s0" d="m260.5 245.1l-14.1-14.2z"/>
	<path id="Layer" class="s1" d="m356.5 356.9h-307.7l7.3-84.1h307.8z"/>
	<path id="Layer" class="s1" d="m346.7 468.8h-307.7l7.4-84.1h307.7z"/>
	<path id="Layer" class="s1" d="m373.7 161l-7.4 84.1h-307.7l7.3-84.1z"/>
	<path id="Layer" class="s2" d="m328 203l-19.5 223.8h-53.7l-106.3-116.5-5.3 60.5 25.5 28-2.4 28h-81.7l19.6-223.8h53.8l106.2 116.2 5.3-60.3-25.5-28 2.4-27.9z"/>
	<path id="Layer" class="s3" d="m404.2 335h22.1l18.3 39.5v-39.5h7.5v48.2h-22l-18.6-40.2v40.2h-7.3z"/>
	<path id="Layer" class="s3" d="m458.9 335h37.2v7.9h-20.2v11.5h19.7v7.9h-19.7v13.2h20.7v7.8h-37.8c0 0 0-48.3 0.1-48.3z"/>
	<path id="Layer" class="s3" d="m500.6 335h42.2v8.1h-12.6v40.3h-16.9v-40.3h-12.7z"/>
	<path id="Layer" class="s3" d="m556.9 383.4l-11.4-48.4h16.9l7.2 31.6 7-31.6h16.8l7.2 31.2 7.2-31.2h7.3l-10.8 48.4h-16.3l-7.5-32.1-7.4 32.1z"/>
	<path id="Layer" fill-rule="evenodd" class="s3" d="m633 335h26.4q1.2 0 2.4 0.2 1.1 0.2 2.1 0.7 1.1 0.4 2.1 1.1 0.9 0.7 1.7 1.8 0.6 0.9 1.2 2.2 0.5 1.2 0.9 2.8 0.2 1.1 0.2 2.3 0.2 1.2 0.1 2.7v20.7q0 1.5-0.1 2.9-0.1 1.4-0.4 2.6-0.3 1.4-0.8 2.6-0.6 1.3-1.2 2.2-1.2 1.5-2.7 2.4-1 0.5-2.1 0.8-1.2 0.3-2.5 0.3h-28.3q-1.1 0-2.1-0.3-1-0.2-1.9-0.6-1-0.6-1.9-1.4-0.9-0.8-1.6-1.8-0.5-0.9-0.9-1.8-0.5-1-0.7-2.1-0.3-1-0.5-2-0.1-1-0.1-2v-23.8q0-1.5 0.2-2.8 0.1-1.2 0.4-2.3 0.3-1.2 0.9-2.3c0.3-0.6 0.7-1.2 1.1-1.7q0.7-0.8 1.5-1.4 0.8-0.6 1.7-1 1.1-0.5 2.4-0.7 1.3-0.3 2.5-0.3zm9.1 8c-0.4 0-0.8 0.1-1.2 0.2q-0.5 0.3-0.9 0.6-0.4 0.5-0.7 1.1-0.2 0.7-0.2 1.3v26.7q0 0.5 0.3 0.9 0.2 0.5 0.6 0.8 0.4 0.3 0.8 0.6 0.5 0.2 1 0.2h9q0.5 0 0.9-0.3 0.5-0.2 0.8-0.6 0.3-0.4 0.5-0.8 0.2-0.5 0.2-1v-27.1q0-0.5-0.2-1-0.2-0.5-0.6-0.8-0.3-0.3-0.8-0.6-0.4-0.2-0.9-0.2z"/>
	<path id="Layer" fill-rule="evenodd" class="s3" d="m713.3 335.1q2.6 0 4.6 0.7 1.8 0.7 3.1 2.1 0.6 0.7 1.1 1.6 0.4 0.9 0.7 2 0.4 1.6 0.4 3.8v9.9q0 0.7 0 1.4-0.1 0.7-0.2 1.5-0.1 0.7-0.4 1.3-0.3 0.7-0.8 1.2-0.4 0.4-0.9 0.8-0.5 0.3-1.1 0.5-0.7 0.3-1.5 0.4-0.8 0.1-1.9 0.1l9.6 20.9h-18.7l-8-20.8h-5.4v20.8h-16.9v-48.2zm-19.3 8v11.3h10.6q0.5 0.1 0.8-0.1c0.2-0.1 0.4-0.3 0.6-0.5 0.1-0.2 0.2-0.5 0.2-0.7q0.1-0.4 0.1-1v-7.4q0-0.4-0.1-0.8c-0.1-0.2-0.3-0.4-0.5-0.5q-0.2-0.2-0.6-0.3-0.4 0-0.7 0c0 0-10.4 0-10.4 0z"/>
	<path id="Layer" class="s3" d="m732.8 335h16.9v21.7l17.3-21.7h10.7l-12.8 14.2 18.8 34.1h-19.9l-10-20.4-4.1 5v15.4h-16.9z"/>
	<path id="Layer" class="s3" d="m397 414.8h37.3v7.8h-20.2v11.6h19.7v7.9h-19.7v13.1h20.7v7.9h-37.8c0 0 0-48.3 0-48.3z"/>
	<path id="Layer" fill-rule="evenodd" class="s3" d="m450.5 414.7h28q1.5 0 2.7 0.4 1.3 0.4 2.2 1 1 0.7 1.8 1.5 0.8 0.9 1.3 1.9 0.5 0.8 0.8 1.7 0.3 0.8 0.6 1.7 0.2 1.1 0.4 2.3 0.1 1.1 0.1 2.2v22.9q0 1.2-0.1 2.4-0.2 1.3-0.6 2.5-0.2 0.9-0.6 1.9-0.4 0.9-0.8 1.7-0.5 0.9-1.2 1.7-0.7 0.7-1.5 1.4-0.9 0.5-1.8 0.8-0.9 0.4-2.1 0.4h-4.7l3.3 6.2h-6.8l-3.3-6.2h-17.6q-1.3 0-2.4-0.3c-0.8-0.2-1.5-0.4-2.1-0.7q-0.9-0.5-1.7-1.1-0.8-0.7-1.3-1.4-0.6-0.8-1.1-1.7-0.5-0.9-0.7-1.8-0.4-1.2-0.6-2.4-0.2-1.2-0.2-2.4v-24.6q0-0.9 0.1-1.9c0.1-0.7 0.2-1.4 0.4-2.1q0.3-0.9 0.8-1.9 0.4-1 0.9-1.8 0.6-0.8 1.2-1.5 0.7-0.7 1.5-1.3 1.1-0.7 2.4-1.1 1.2-0.4 2.7-0.4zm18.4 8.2h-8.9q-0.4 0-0.9 0.2-0.5 0.3-0.8 0.7-0.4 0.4-0.6 0.8-0.2 0.5-0.2 1v27q0 0.4 0.2 0.9 0.2 0.4 0.6 0.8 0.4 0.4 0.8 0.6 0.5 0.2 1 0.2h4.1l-3.6-7h6.5l3.4 6.5q0.3-0.2 0.6-0.6c0.1-0.2 0.1-0.3 0.2-0.5q0.1-0.2 0.1-0.4v-28.1q0-0.4-0.3-0.8-0.2-0.4-0.6-0.6-0.3-0.3-0.7-0.5-0.5-0.2-0.9-0.2z"/>
	<path id="Layer" class="s3" d="m494.9 414.7h17v36.4q0 0.7 0.2 1.3 0.2 0.7 0.6 1.2 0.5 0.7 1.2 1.1 0.7 0.5 1.4 0.5h16.1q0.8 0 1.4-0.3 0.6-0.2 1-0.6 0.6-0.4 0.8-1.1 0.2-0.6 0.2-1.3v-37.2h7.3v35.6q0 1.1-0.1 2.3-0.1 1.2-0.3 2.3-0.2 1.2-0.7 2.3-0.4 1.1-1 2.1-0.5 0.8-1.3 1.5-0.7 0.7-1.6 1.2-1 0.6-2.4 0.9-1.4 0.3-3.1 0.3h-25.6q-1.6-0.1-2.9-0.3-1.2-0.3-2.3-0.8-1-0.6-1.9-1.3-0.8-0.8-1.4-1.7-0.8-1-1.2-2.2-0.5-1.2-0.8-2.4-0.3-1.2-0.5-2.4-0.1-1.3-0.1-2.4c0 0 0-35 0-35z"/>
	<path id="Layer" class="s3" d="m550.1 414.9l17-0.1v48.4h-17z"/>
	<path id="Layer" fill-rule="evenodd" class="s3" d="m572.6 414.9h35.8q0.9 0 1.9 0.1c0.7 0.1 1.4 0.2 2 0.4q0.9 0.4 1.8 0.9 0.9 0.5 1.7 1.2 0.6 0.6 1 1.3 0.5 0.7 0.8 1.6 0.3 0.8 0.5 1.9c0.1 0.7 0.2 1.4 0.2 2.3v12q0 1.1-0.2 2.1-0.2 1-0.5 1.8c-0.2 0.6-0.4 1.1-0.7 1.5q-0.5 0.7-1 1.3-0.6 0.6-1.3 1-0.7 0.5-1.6 0.8-1 0.4-2.1 0.6-1 0.2-2.1 0.2h-19.3v17.2h-16.8c0 0 0-48.2-0.1-48.2zm16.8 7.9v15.1h10q0.4-0.1 0.8-0.3 0.4-0.3 0.6-0.7 0.3-0.4 0.4-0.9 0.2-0.5 0.2-0.9v-9.9q0-0.6-0.2-1-0.2-0.5-0.4-0.7-0.3-0.4-0.7-0.5-0.3-0.2-0.7-0.2c0 0-10 0-10 0z"/>
	<path id="Layer" class="s3" d="m625.2 414.8h21.7l8.5 27.5 9.2-27.5h21.1v48.4h-16.7v-38.6l-12.6 38.5h-11.7l-12.2-38.1v38.1h-7.3c0 0 0-48.3 0-48.3z"/>
	<path id="Layer" class="s3" d="m693.1 414.8h37.3v7.8h-20.2v11.6h19.7v7.9h-19.7v13.1h20.7v7.9h-37.8v-48.3z"/>
	<path id="Layer" class="s3" d="m737.2 414.7h22.1l18.3 39.6v-39.6h7.6v48.3h-22.1l-18.6-40.2v40.2h-7.2c0 0 0-48.3-0.1-48.3z"/>
	<path id="Layer" class="s3" d="m789.7 414.7h42.3v8.2h-12.7v40.3h-16.8v-40.3h-12.8z"/>
	<path id="Layer" class="s4" d="m398 166h52.6l43.8 94.2v-94.2h18v115.2h-52.6l-44.4-96v96h-17.4z"/>
	<path id="Layer" class="s4" d="m528.4 166.2h88.9v18.7h-48.3v27.6h46.9v18.8h-46.9v31.4h49.4v18.6h-90.1c0 0 0-115.1 0.1-115.1z"/>
	<path id="Layer" class="s4" d="m651.8 281.4l-27.3-115.4h40.3l17.2 75.5 16.7-75.5h40.2l17.2 74.4 17-74.4h17.6l-25.8 115.4h-39l-17.9-76.5-17.6 76.5z"/>
	<path id="Layer" class="s4" d="m829.2 166h52.6l43.8 94.2v-94.2h18v115.2h-52.6l-44.4-96v96h-17.4z"/>
	<path id="Layer" class="s4" d="m959.6 166.2h88.9v18.7h-48.3v27.6h46.9v18.8h-46.9v31.4h49.4v18.6h-90.1c0 0 0-115.1 0.1-115.1z"/>
	<path id="Layer" class="s4" d="m1059.2 166h100.8v19.5h-30.2v95.9h-40.2v-95.9h-30.4z"/>
</svg>