<svg version="1.2" xmlns="http://www.w3.org/2000/svg" viewBox="0 0 1080 1080" width="1080" height="1080">
	<title>New Project</title>
	<style>
		.s0 { fill: #cc1f36 } 
		.s1 { fill: #2d4b83 } 
		.s2 { fill: #ffffff } 
		.s3 { fill: #414042 } 
	</style>
	<path id="Layer" class="s0" d="m679.4 257l-36.7-36.7z"/>
	<path id="Layer" class="s1" d="m928.3 547h-797.9l19.1-218.1h797.9z"/>
	<path id="Layer" class="s1" d="m902.9 837.1h-797.9l19.1-218h797.9z"/>
	<path id="Layer" class="s1" d="m972.8 39l-19.1 218h-798l19.1-218z"/>
	<path id="Layer" class="s2" d="m854.4 147.8l-50.7 580.3h-139.2l-275.6-302-13.7 157 66.2 72.5-6.3 72.5h-211.8l50.8-580.3h139.4l275.4 301.4 13.6-156.4-66.1-72.5 6.3-72.5z"/>
	<path id="Layer" class="s3" d="m105 909.2h60.1l49.9 107.6v-107.6h20.6v131.5h-60.1l-50.6-109.6v109.6h-19.9z"/>
	<path id="Layer" class="s3" d="m253.9 909.4h101.5v21.4h-55.2v31.5h53.6v21.5h-53.6v35.8h56.4v21.3h-102.8c0 0 0-131.5 0.1-131.5z"/>
	<path id="Layer" class="s3" d="m394.8 1041l-31.2-131.8h46l19.6 86.2 19.1-86.2h45.9l19.7 85 19.4-85h20l-29.4 131.8h-44.5l-20.5-87.3-20 87.3z"/>
	<path id="Layer" class="s3" d="m597.3 909.2h60.1l49.9 107.6v-107.6h20.6v131.5h-60.1l-50.6-109.6v109.6h-19.9z"/>
	<path id="Layer" class="s3" d="m746.2 909.4h101.5v21.4h-55.1v31.5h53.5v21.5h-53.5v35.8h56.3v21.3h-102.8c0 0 0-131.5 0.1-131.5z"/>
	<path id="Layer" class="s3" d="m859.9 909.2h115.1v22.3h-34.5v109.5h-45.9v-109.5h-34.7z"/>
</svg>